<?xml version="1.0" encoding="UTF-8"?>
<svg width="180" height="180" viewBox="0 0 180 180" fill="none" xmlns="http://www.w3.org/2000/svg">
    <rect width="180" height="180" rx="45" fill="#030712"/>
    <path d="M90 45C73.43 45 60 58.43 60 75C60 91.57 73.43 105 90 105C106.57 105 120 91.57 120 75C120 58.43 106.57 45 90 45ZM90 97.5C77.58 97.5 67.5 87.42 67.5 75C67.5 62.58 77.58 52.5 90 52.5C102.42 52.5 112.5 62.58 112.5 75C112.5 87.42 102.42 97.5 90 97.5Z" fill="#22D3EE"/>
    <path d="M127.5 120H52.5C48.36 120 45 123.36 45 127.5V135H135V127.5C135 123.36 131.64 120 127.5 120Z" fill="#22D3EE"/>
</svg>