<?xml version="1.0" encoding="UTF-8"?>
<svg width="192" height="192" viewBox="0 0 192 192" fill="none" xmlns="http://www.w3.org/2000/svg">
    <rect width="192" height="192" rx="48" fill="#030712"/>
    <path d="M96 48C78.33 48 64 62.33 64 80C64 97.67 78.33 112 96 112C113.67 112 128 97.67 128 80C128 62.33 113.67 48 96 48ZM96 104C82.75 104 72 93.25 72 80C72 66.75 82.75 56 96 56C109.25 56 120 66.75 120 80C120 93.25 109.25 104 96 104Z" fill="#22D3EE"/>
    <path d="M136 128H56C51.58 128 48 131.58 48 136V144H144V136C144 131.58 140.42 128 136 128Z" fill="#22D3EE"/>
</svg>