<?xml version="1.0" encoding="UTF-8"?>
<svg width="512" height="512" viewBox="0 0 512 512" fill="none" xmlns="http://www.w3.org/2000/svg">
    <rect width="512" height="512" rx="128" fill="#030712"/>
    <path d="M256 128C209.33 128 172 165.33 172 212C172 258.67 209.33 296 256 296C302.67 296 340 258.67 340 212C340 165.33 302.67 128 256 128ZM256 280C218.75 280 188 249.25 188 212C188 174.75 218.75 144 256 144C293.25 144 324 174.75 324 212C324 249.25 293.25 280 256 280Z" fill="#22D3EE"/>
    <path d="M360 344H152C140.58 344 132 352.58 132 364V384H380V364C380 352.58 371.42 344 360 344Z" fill="#22D3EE"/>
</svg>